<svg xmlns="http://www.w3.org/2000/svg" width="18" height="18" viewBox="0 0 18 18">
    <g fill="none" fill-rule="evenodd">
        <path d="M0 0h18v18H0z"/>
        <path d="M0 0h17.593v17.593H0z"/>
        <path fill="#4C6CC4" fill-rule="nonzero" d="M17.152 10.707a.9.9 0 0 1 .224 1.164l-1.638 2.758a.907.907 0 0 1-1.12.397l-1.798-.703c-.329.224-.662.415-1.004.57l-.27 1.835a.897.897 0 0 1-.9.772h-3.29c-.45 0-.84-.325-.897-.763l-.271-1.843a6.533 6.533 0 0 1-1.007-.57l-1.81.707c-.41.145-.887-.012-1.099-.392L.621 11.861a.897.897 0 0 1 .232-1.155l1.51-1.148A5.774 5.774 0 0 1 2.332 9c0-.179.01-.36.03-.558L.85 7.292A.886.886 0 0 1 .627 6.13L2.266 3.37a.907.907 0 0 1 1.12-.397l1.797.703c.33-.224.663-.415 1.005-.57l.27-1.835A.897.897 0 0 1 7.357.5h3.29c.451 0 .841.325.897.763l.272 1.843c.35.158.685.348 1.007.57l1.81-.707c.41-.145.886.012 1.099.392l1.65 2.778c.22.391.126.88-.231 1.155l-1.51 1.148a5.67 5.67 0 0 1 0 1.116l1.511 1.15zM9.002 12.3c1.86 0 3.378-1.477 3.378-3.3 0-1.823-1.518-3.3-3.378-3.3S5.623 7.177 5.623 9c0 1.823 1.518 3.3 3.379 3.3zm5.87 1.829l.002-.004-.002.004zm-4.317 2.462v-.004.004zM3.138 14.14l-.004-.007a.164.164 0 0 1 .004.007zM14.866 3.861l.004.007a.164.164 0 0 1-.004-.007z"/>
    </g>
</svg>
