<svg xmlns="http://www.w3.org/2000/svg" xmlns:xlink="http://www.w3.org/1999/xlink" width="26" height="26" viewBox="0 0 26 26">
    <defs>
        <path id="b" d="M8.802 14L7 16.06 5.198 14H1.7a1.5 1.5 0 0 1-1.5-1.5v-7A1.5 1.5 0 0 1 1.7 4h10.6a1.5 1.5 0 0 1 1.5 1.5v7a1.5 1.5 0 0 1-1.5 1.5H8.802z"/>
        <filter id="a" width="291.2%" height="315.6%" x="-80.9%" y="-91.2%" filterUnits="objectBoundingBox">
            <feOffset dx="2" dy="2" in="SourceAlpha" result="shadowOffsetOuter1"/>
            <feGaussianBlur in="shadowOffsetOuter1" result="shadowBlurOuter1" stdDeviation="4"/>
            <feColorMatrix in="shadowBlurOuter1" values="0 0 0 0 0.529411765 0 0 0 0 0.125490196 0 0 0 0 0.117647059 0 0 0 0.35 0"/>
        </filter>
        <linearGradient id="c" x1="0%" y1="50%" y2="50%">
            <stop offset="0%" stop-color="#F96"/>
            <stop offset="100%" stop-color="#FF5E62"/>
        </linearGradient>
    </defs>
    <g fill="none" fill-rule="evenodd">
        <path d="M0 0h26v26H0z"/>
        <path fill="#FFF" d="M16.746 15.34l-1.802 2.06-1.802-2.06H9.644a1.5 1.5 0 0 1-1.5-1.5v-7a1.5 1.5 0 0 1 1.5-1.5h10.6a1.5 1.5 0 0 1 1.5 1.5v7a1.5 1.5 0 0 1-1.5 1.5h-3.498z" opacity=".5"/>
        <g transform="translate(4 5)">
            <use fill="#000" filter="url(#a)" xlink:href="#b"/>
            <use fill="#FFF" xlink:href="#b"/>
        </g>
        <g fill="url(#c)" transform="translate(6 11.37)">
            <path d="M8.583 0c.28 0 .505.224.505.5s-.226.5-.505.5H.505A.502.502 0 0 1 0 .5C0 .224.226 0 .505 0h8.078zM4.583 2c.28 0 .505.224.505.5s-.226.5-.505.5H.505A.502.502 0 0 1 0 2.5c0-.276.226-.5.505-.5h4.078zM2.583 4c.28 0 .505.224.505.5s-.226.5-.505.5H.505A.502.502 0 0 1 0 4.5c0-.276.226-.5.505-.5h2.078z"/>
        </g>
    </g>
</svg>
