<svg xmlns="http://www.w3.org/2000/svg" width="26" height="26" viewBox="0 0 26 26">
    <g fill="none" fill-rule="evenodd">
        <g fill="#5F7CCB" fill-rule="nonzero">
            <path d="M18.254 12.174l-4.637 2.653v5.306l4.637 2.653 4.636-2.653v-5.306l-4.636-2.653zm0 .962l3.795 2.172v4.344l-3.795 2.172-3.796-2.172v-4.344l3.796-2.172zM3.55 14.827v5.306l4.636 2.652 4.636-2.652v-5.306l-4.636-2.653-4.637 2.653zm2.906-.77l1.73-.99 3.856 2.207v2.025l-5.586-3.242zM4.33 15.97v-.695l.69-.395 7.022 4.075v.732l-.581.332-7.13-4.05zm0 3.717v-2.071l5.687 3.23-1.831 1.047-3.856-2.206zM8.583 6.202v5.306l4.637 2.653 4.636-2.653V6.202L13.22 3.55 8.583 6.202zm1.28.23l3.357-1.92 3.37 1.928-3.32 1.948-3.406-1.956zm-.439 4.595V7.142l3.43 1.97.015 3.886-3.445-1.971zm4.27-1.92l3.321-1.949v3.869l-3.306 1.892-.015-3.812z"/>
        </g>
        <path d="M0 0h26v26H0z"/>
    </g>
</svg>
